<svg width="24" height="24" viewBox="0 0 24 24" fill="none" xmlns="http://www.w3.org/2000/svg">
<g clip-path="url(#clip0_58_271)">
<circle cx="12" cy="12" r="12" fill="#D43030"/>
<path fill-rule="evenodd" clip-rule="evenodd" d="M9.5595 7.4395L12.2579 10.1391L14.9559 7.4395C15.5419 6.8535 16.4899 6.8535 17.0759 7.4395C17.6619 8.0255 17.6619 8.9735 17.0759 9.5595L14.3779 12.2591L17.0755 14.9555C17.6615 15.5415 17.6615 16.4895 17.0755 17.0755C16.7835 17.3695 16.3995 17.5155 16.0155 17.5155C15.6315 17.5155 15.2475 17.3695 14.9555 17.0755L12.2579 14.3791L9.5599 17.0755C9.2679 17.3695 8.8839 17.5155 8.4999 17.5155C8.1159 17.5155 7.7319 17.3695 7.4399 17.0755C6.8539 16.4895 6.8539 15.5415 7.4399 14.9555L10.1379 12.2591L7.4395 9.5595C6.8535 8.9735 6.8535 8.0255 7.4395 7.4395C8.0255 6.8535 8.9735 6.8535 9.5595 7.4395Z" fill="white"/>
</g>
<defs>
<clipPath id="clip0_58_271">
<rect width="24" height="24" fill="white"/>
</clipPath>
</defs>
</svg>
