<svg width="48" height="48" viewBox="0 0 48 48" fill="none" xmlns="http://www.w3.org/2000/svg">
<path d="M17.7964 19.1605C17.7964 18.7808 18.0786 18.467 18.4447 18.4173L18.5464 18.4105L30.3465 18.4106L27.539 15.6143C27.2454 15.3221 27.2443 14.8473 27.5365 14.5537C27.8022 14.2868 28.2188 14.2616 28.5129 14.4788L28.5972 14.5512L32.6939 18.629C32.718 18.6536 32.7399 18.6786 32.7601 18.705L32.6939 18.629C32.7308 18.6658 32.7632 18.7055 32.7908 18.7473C32.7999 18.7619 32.8092 18.7771 32.818 18.7926C32.8267 18.807 32.8343 18.8217 32.8414 18.8365C32.8479 18.8512 32.8544 18.866 32.8605 18.8811C32.8687 18.9003 32.8756 18.92 32.8817 18.9399C32.8848 18.9516 32.8882 18.9636 32.8913 18.9757C32.8972 18.9973 32.9017 19.019 32.9052 19.0408C32.9064 19.0511 32.9079 19.0618 32.9091 19.0726C32.9125 19.0972 32.9142 19.1216 32.9146 19.1461C32.9142 19.1509 32.9142 19.1557 32.9142 19.1605L32.9146 19.1751C32.9142 19.1995 32.9125 19.2239 32.9097 19.2482L32.9142 19.1605C32.9142 19.2013 32.9109 19.2414 32.9047 19.2805C32.9017 19.3021 32.8972 19.3238 32.8918 19.3453C32.8884 19.3567 32.8852 19.3681 32.8818 19.3794C32.8758 19.4009 32.8682 19.4222 32.8596 19.4433C32.8543 19.4548 32.8495 19.4659 32.8444 19.4769C32.837 19.4942 32.8281 19.5115 32.8185 19.5285C32.8092 19.5439 32.7999 19.559 32.7901 19.5738C32.7832 19.5853 32.7752 19.5967 32.7669 19.6079L32.7601 19.6159C32.7399 19.6423 32.718 19.6673 32.6945 19.6908L32.6939 19.6921L28.5972 23.7699C28.3036 24.0621 27.8288 24.061 27.5365 23.7674C27.2709 23.5006 27.2476 23.0838 27.4662 22.7907L27.539 22.7068L30.3485 19.9106L18.5464 19.9105C18.1322 19.9105 17.7964 19.5747 17.7964 19.1605ZM15.0829 29.0889L15.0825 29.0743C15.0829 29.0498 15.0846 29.0254 15.0874 29.0011L15.0829 29.0889C15.0829 29.048 15.0861 29.0079 15.0924 28.9689C15.0954 28.9475 15.0998 28.926 15.1051 28.9048C15.1088 28.8923 15.1124 28.8795 15.1163 28.8669C15.1218 28.8472 15.1286 28.8281 15.1361 28.8093C15.1422 28.7957 15.1482 28.7819 15.1546 28.7684C15.1616 28.7523 15.1698 28.7364 15.1786 28.7208C15.1868 28.7075 15.1948 28.6942 15.2032 28.6813C15.2111 28.6679 15.2204 28.6546 15.2302 28.6415L15.3032 28.5572L19.3999 24.4795C19.6935 24.1872 20.1683 24.1883 20.4605 24.4819C20.7262 24.7488 20.7494 25.1655 20.5309 25.4586L20.4581 25.5426L17.6475 28.3396L29.4507 28.3389C29.8649 28.3389 30.2007 28.6747 30.2007 29.0889C30.2007 29.4686 29.9185 29.7824 29.5524 29.8321L29.4507 29.8389L17.6485 29.8396L20.4581 32.635C20.725 32.9007 20.7501 33.3173 20.533 33.6114L20.4605 33.6957C20.1949 33.9625 19.7783 33.9877 19.4842 33.7705L19.3999 33.6981L15.3032 29.6203L15.2627 29.5762C15.2538 29.5658 15.2453 29.5552 15.2369 29.5443L15.3032 29.6203C15.2663 29.5835 15.2339 29.5439 15.2062 29.502C15.1971 29.4874 15.1879 29.4722 15.1791 29.4567C15.1704 29.4423 15.1628 29.4277 15.1557 29.4128C15.1492 29.3982 15.1427 29.3833 15.1366 29.3682C15.1284 29.3491 15.1215 29.3294 15.1154 29.3095C15.1121 29.2974 15.1087 29.285 15.1055 29.2725C15.1 29.2524 15.0957 29.232 15.0924 29.2115C15.0908 29.1992 15.0891 29.1871 15.0878 29.175C15.0846 29.1518 15.083 29.1281 15.0825 29.1043C15.0829 29.099 15.0829 29.094 15.0829 29.0889Z" fill="#08733F"/>
<circle cx="24" cy="24" r="23.5" stroke="#08733F"/>
</svg>
