<?xml version="1.0" standalone="no"?>
<!DOCTYPE svg PUBLIC "-//W3C//DTD SVG 20010904//EN"
 "http://www.w3.org/TR/2001/REC-SVG-20010904/DTD/svg10.dtd">
<svg version="1.0" xmlns="http://www.w3.org/2000/svg"
 width="700.000000pt" height="700.000000pt" viewBox="0 0 700.000000 700.000000"
 preserveAspectRatio="xMidYMid meet">
<metadata>
Created by potrace 1.14, written by Peter Selinger 2001-2017
</metadata>
<g transform="translate(0.000000,700.000000) scale(0.100000,-0.100000)"
fill="#000000" stroke="none">
<path d="M3298 6995 c-1 -2 -52 -6 -113 -10 -60 -4 -114 -11 -119 -15 -5 -5
-15 -6 -23 -3 -8 3 -19 0 -24 -8 -5 -8 -9 -9 -9 -3 0 13 -142 -10 -315 -51
-60 -14 -119 -28 -131 -30 -38 -8 -235 -76 -351 -121 -138 -53 -358 -160 -466
-226 -43 -26 -81 -48 -84 -48 -4 0 -204 -134 -233 -157 -8 -6 -51 -40 -95 -74
-426 -331 -813 -825 -1020 -1299 -25 -58 -50 -114 -55 -125 -45 -93 -150 -427
-176 -560 -2 -11 -10 -54 -19 -95 -29 -147 -35 -194 -52 -370 -15 -163 -8
-592 12 -711 2 -13 6 -46 9 -74 38 -329 167 -745 339 -1085 61 -122 169 -312
187 -330 3 -3 31 -43 62 -90 170 -255 431 -534 708 -755 92 -74 370 -265 386
-265 4 0 15 -6 23 -14 9 -7 81 -47 161 -88 354 -181 736 -303 1109 -354 25 -3
57 -8 71 -10 125 -19 551 -25 715 -10 50 5 100 9 113 9 12 1 22 3 22 6 0 4 17
6 37 5 20 -1 53 2 72 7 37 8 77 15 134 24 183 30 472 119 702 217 208 89 348
164 549 297 258 169 491 370 686 590 36 41 70 79 76 85 65 68 263 353 352 508
47 80 182 351 182 364 0 3 8 24 19 47 53 118 147 417 177 562 17 81 54 301 59
350 4 33 9 71 11 85 9 47 11 525 3 605 -15 165 -21 220 -24 225 -2 3 -6 30
-10 60 -9 75 -69 337 -99 435 -189 622 -521 1151 -997 1590 -412 380 -944 668
-1487 805 -121 30 -244 56 -312 65 -19 3 -46 7 -60 10 -13 2 -52 7 -86 11 -33
3 -74 8 -90 10 -34 6 -521 14 -526 9z m487 -1759 c17 -3 66 -10 110 -17 44 -6
87 -13 95 -14 366 -76 670 -200 959 -392 99 -66 238 -172 291 -222 153 -144
257 -256 341 -366 134 -175 274 -419 354 -619 36 -92 42 -124 26 -154 -6 -9
-32 -69 -60 -132 -269 -619 -782 -1120 -1409 -1374 -242 -98 -476 -157 -732
-183 -95 -10 -422 -10 -517 -1 -94 10 -209 27 -253 38 -19 5 -46 11 -60 14
-65 12 -193 47 -285 79 -715 247 -1285 788 -1578 1498 l-44 107 43 107 c47
118 85 199 123 260 13 22 24 41 23 43 -2 2 11 25 45 80 10 15 20 32 23 37 20
41 148 213 224 302 146 170 298 310 466 430 373 268 815 435 1265 478 39 4 72
9 74 11 5 5 443 -4 476 -10z"/>
</g>
</svg>
